<svg width="22" height="22" viewBox="0 0 22 22" fill="none" xmlns="http://www.w3.org/2000/svg">
<g clip-path="url(#clip0_5442_4023)">
<path fill-rule="evenodd" clip-rule="evenodd" d="M21.4958 5.45582C21.648 4.95532 21.4958 4.58682 20.7671 4.58682H18.3608C17.7485 4.58682 17.4662 4.9049 17.3131 5.25599C17.3131 5.25599 16.0893 8.18565 14.3559 10.0887C13.7949 10.6405 13.5401 10.8156 13.2339 10.8156C13.0808 10.8156 12.8508 10.6405 12.8508 10.1391V5.45582C12.8508 4.85449 12.6821 4.58682 12.1724 4.58682H8.38842C8.00617 4.58682 7.77608 4.86549 7.77608 5.1304C7.77608 5.69965 8.64325 5.83165 8.73217 7.43399V10.9155C8.73217 11.6791 8.59192 11.8175 8.28575 11.8175C7.46992 11.8175 5.48533 8.87407 4.30742 5.50624C4.07917 4.85082 3.84817 4.58682 3.23308 4.58682H0.825C0.1375 4.58682 0 4.9049 0 5.25599C0 5.88115 0.815833 8.98682 3.79958 13.0944C5.78875 15.8994 8.58917 17.4202 11.1403 17.4202C12.6702 17.4202 12.859 17.0828 12.859 16.5007V14.3805C12.859 13.7049 13.0038 13.5702 13.4888 13.5702C13.8463 13.5702 14.4577 13.7462 15.8858 15.0982C17.5175 16.7015 17.7861 17.4202 18.7046 17.4202H21.1108C21.7983 17.4202 22.143 17.0828 21.945 16.4155C21.7268 15.7518 20.9477 14.7884 19.9146 13.6453C19.3536 12.9945 18.5121 12.2932 18.2563 11.9422C17.8998 11.4921 18.0015 11.2913 18.2563 10.8907C18.2563 10.8907 21.1897 6.83357 21.4949 5.45582H21.4958Z" fill="white"/>
</g>
<defs>
<clipPath id="clip0_5442_4023">
<rect width="22" height="22" fill="white"/>
</clipPath>
</defs>
</svg>
