<svg width="22" height="22" viewBox="0 0 22 22" fill="none" xmlns="http://www.w3.org/2000/svg">
<g clip-path="url(#clip0_5442_4019)">
<path d="M21.5423 5.96567C21.4177 5.5213 21.175 5.11899 20.8401 4.80151C20.4957 4.47426 20.0736 4.24018 19.6136 4.12134C17.8921 3.66759 10.9951 3.66759 10.9951 3.66759C8.11984 3.63488 5.24526 3.77876 2.38762 4.09843C1.92763 4.22604 1.50631 4.46536 1.16113 4.79509C0.821959 5.12143 0.576293 5.52384 0.44796 5.96476C0.139679 7.62552 -0.0101055 9.31182 0.000626786 11.0009C-0.0103732 12.6885 0.139043 14.3743 0.44796 16.0371C0.573543 16.4762 0.818293 16.8767 1.15838 17.2003C1.49846 17.5239 1.92196 17.7577 2.38762 17.8814C4.13204 18.3342 10.9951 18.3342 10.9951 18.3342C13.8741 18.367 16.7523 18.2231 19.6136 17.9034C20.0736 17.7846 20.4957 17.5505 20.8401 17.2232C21.1793 16.8997 21.4204 16.4972 21.5414 16.0591C21.8577 14.399 22.0115 12.712 22.0006 11.022C22.0244 9.32489 21.8708 7.62994 21.5423 5.96476V5.96567ZM8.80245 14.1396V7.86317L14.5408 11.0018L8.80245 14.1396Z" fill="white"/>
</g>
<defs>
<clipPath id="clip0_5442_4019">
<rect width="22" height="22" fill="white"/>
</clipPath>
</defs>
</svg>
