<svg width="46" height="46" viewBox="0 0 46 46" fill="none" xmlns="http://www.w3.org/2000/svg">
<path d="M31.625 17.25C31.625 19.5375 30.7163 21.7313 29.0988 23.3488C27.4813 24.9663 25.2875 25.875 23 25.875C20.7125 25.875 18.5187 24.9663 16.9012 23.3488C15.2837 21.7313 14.375 19.5375 14.375 17.25C14.375 14.9625 15.2837 12.7687 16.9012 11.1512C18.5187 9.5337 20.7125 8.625 23 8.625C25.2875 8.625 27.4813 9.5337 29.0988 11.1512C30.7163 12.7687 31.625 14.9625 31.625 17.25Z" fill="#006AD5"/>
<path fill-rule="evenodd" clip-rule="evenodd" d="M0 23C0 16.9 2.42321 11.0499 6.73654 6.73654C11.0499 2.42321 16.9 0 23 0C29.1 0 34.9501 2.42321 39.2635 6.73654C43.5768 11.0499 46 16.9 46 23C46 29.1 43.5768 34.9501 39.2635 39.2635C34.9501 43.5768 29.1 46 23 46C16.9 46 11.0499 43.5768 6.73654 39.2635C2.42321 34.9501 0 29.1 0 23ZM23 2.875C19.2101 2.8752 15.4973 3.94554 12.2889 5.96283C9.08051 7.98012 6.50694 10.8624 4.8644 14.2778C3.22186 17.6933 2.57711 21.5031 3.00437 25.2688C3.43163 29.0346 4.91353 32.6031 7.2795 35.5638C9.32075 32.2747 13.8144 28.75 23 28.75C32.1856 28.75 36.6764 32.2719 38.7205 35.5638C41.0865 32.6031 42.5684 29.0346 42.9956 25.2688C43.4229 21.5031 42.7781 17.6933 41.1356 14.2778C39.4931 10.8624 36.9195 7.98012 33.7111 5.96283C30.5027 3.94554 26.7899 2.8752 23 2.875Z" fill="#006AD5"/>
</svg>
