<svg width="30" height="30" viewBox="0 0 30 30" fill="none" xmlns="http://www.w3.org/2000/svg">
<circle cx="15" cy="15" r="13.5" stroke="#FFE600" stroke-width="3"/>
<path d="M19.4299 16.2357L18.9727 13.2676C18.9279 12.976 18.7802 12.7101 18.5564 12.5179C18.3326 12.3258 18.0475 12.22 17.7525 12.2197H11.2224C10.9272 12.2197 10.6418 12.3253 10.4177 12.5175C10.1937 12.7098 10.0458 12.9758 10.0009 13.2676L9.14522 18.8282C9.11814 19.0043 9.12946 19.1842 9.1784 19.3555C9.22734 19.5268 9.31275 19.6855 9.42878 19.8208C9.5448 19.956 9.68869 20.0645 9.85058 20.1389C10.0125 20.2133 10.1885 20.2518 10.3667 20.2518H14.4871" stroke="#FFE600" stroke-linecap="round" stroke-linejoin="round"/>
<path d="M15.7227 19.0169L17.5762 20.8705L20.6654 17.7812" stroke="#FFE600" stroke-linecap="round" stroke-linejoin="round"/>
<path d="M15.7214 10.3666C15.7214 10.0388 15.5912 9.72453 15.3595 9.49279C15.1277 9.26105 14.8134 9.13086 14.4857 9.13086C14.158 9.13086 13.8437 9.26105 13.6119 9.49279C13.3802 9.72453 13.25 10.0388 13.25 10.3666" stroke="#FFE600" stroke-linecap="round" stroke-linejoin="round"/>
</svg>
