<svg width="20" height="21" viewBox="0 0 20 21" fill="none" xmlns="http://www.w3.org/2000/svg">
<g clip-path="url(#clip0_5412_4714)">
<path d="M3.76758 6.18949H16.4883C16.7461 6.1895 17.001 6.24352 17.2366 6.34807C17.4722 6.45261 17.6833 6.60537 17.8562 6.79648C18.0292 6.9876 18.1602 7.21284 18.2407 7.45767C18.3213 7.70251 18.3497 7.96151 18.324 8.21799L17.7706 13.7528C17.725 14.208 17.512 14.6301 17.1728 14.9371C16.8336 15.2441 16.3924 15.4141 15.9349 15.4141H7.12534C6.69868 15.4143 6.28514 15.2666 5.95515 14.9961C5.62515 14.7257 5.3991 14.3492 5.31547 13.9308L3.76758 6.18949Z" stroke="white" stroke-width="2" stroke-linejoin="round"/>
<path d="M3.76739 6.18985L3.02019 3.1983C2.97022 2.99882 2.85503 2.82176 2.69291 2.69524C2.53079 2.56873 2.33105 2.50001 2.1254 2.5H1" stroke="white" stroke-width="2" stroke-linecap="round" stroke-linejoin="round"/>
<path d="M6.53516 19.1043H8.38008" stroke="white" stroke-width="2" stroke-linecap="round" stroke-linejoin="round"/>
<path d="M13.915 19.1043H15.76" stroke="white" stroke-width="2" stroke-linecap="round" stroke-linejoin="round"/>
</g>
<defs>
<clipPath id="clip0_5412_4714">
<rect width="20" height="20" fill="white" transform="translate(0 0.5)"/>
</clipPath>
</defs>
</svg>
