<svg width="30" height="30" viewBox="0 0 30 30" fill="none" xmlns="http://www.w3.org/2000/svg">
<circle cx="15" cy="15" r="13.5" stroke="#98CBFF" stroke-width="3"/>
<path d="M20.7864 14.0289C20.7411 14.0145 20.6919 14.0187 20.6497 14.0406C20.6075 14.0624 20.5756 14.1002 20.5612 14.1455C20.5468 14.1908 20.551 14.24 20.5729 14.2822C20.5947 14.3245 20.6325 14.3563 20.6778 14.3707C22.0793 14.8172 22.7044 15.4832 22.7044 16.5311C22.7044 17.4632 21.8541 18.1865 21.3477 18.5351C21.3237 18.5516 21.3041 18.5736 21.2905 18.5994C21.277 18.6251 21.2699 18.6538 21.2699 18.6828V20.0539C20.8393 19.8906 20.4546 19.6254 20.1488 19.281C20.1281 19.2579 20.1017 19.2406 20.0723 19.2306C20.0429 19.2206 20.0115 19.2183 19.981 19.224C19.8788 19.2437 19.7744 19.2717 19.6686 19.3C19.4857 19.3492 19.2971 19.4001 19.1181 19.4001C18.1972 19.4001 17.5523 19.2021 16.8932 18.7176C16.8549 18.6894 16.8069 18.6776 16.7598 18.6848C16.7128 18.6919 16.6705 18.7175 16.6423 18.7558C16.6141 18.7942 16.6023 18.8421 16.6095 18.8892C16.6166 18.9362 16.6422 18.9785 16.6805 19.0067C17.4075 19.541 18.1136 19.7587 19.1181 19.7587C19.3444 19.7587 19.5567 19.7017 19.7618 19.6465C19.8257 19.6289 19.8892 19.6117 19.9519 19.597C20.6222 20.3049 21.3803 20.4659 21.4133 20.4724C21.4394 20.4778 21.4663 20.4773 21.4921 20.4709C21.5179 20.4645 21.542 20.4524 21.5625 20.4355C21.5831 20.4187 21.5998 20.3975 21.6112 20.3735C21.6226 20.3495 21.6285 20.3233 21.6285 20.2967V18.7764C22.5545 18.1162 23.063 17.3215 23.063 16.5311C23.063 15.3186 22.3397 14.5235 20.7864 14.0289Z" fill="#98CBFF"/>
<path d="M19.8347 13.8415C19.8347 11.0815 17.3179 9 13.9808 9C10.6269 9 8 11.127 8 13.8422C8 15.47 9.15155 16.6363 10.1518 17.342V19.7219C10.152 19.7518 10.1596 19.7811 10.1739 19.8073C10.1883 19.8335 10.2089 19.8557 10.234 19.8719C10.2591 19.8882 10.2878 19.8979 10.3176 19.9002C10.3474 19.9026 10.3773 19.8975 10.4046 19.8854C10.457 19.8621 11.681 19.3059 12.7281 18.1608C13.1818 18.2451 13.695 18.3261 14.1605 18.3261C17.5542 18.3261 19.8347 16.5236 19.8347 13.8415ZM14.1601 17.9675C13.6903 17.9675 13.1563 17.8775 12.6959 17.7896C12.6654 17.784 12.6339 17.7863 12.6045 17.7963C12.5752 17.8063 12.5488 17.8236 12.528 17.8466C11.7928 18.6758 10.9289 19.2026 10.5104 19.4296V17.2484C10.5104 17.2193 10.5033 17.1907 10.4897 17.1649C10.4762 17.1392 10.4566 17.1171 10.4326 17.1007C9.48651 16.4498 8.35863 15.3567 8.35863 13.8422C8.35863 11.3279 10.8281 9.35863 13.9808 9.35863C17.1138 9.35863 19.4761 11.2859 19.4761 13.8415C19.4761 16.3095 17.3397 17.9675 14.1601 17.9675Z" fill="#98CBFF"/>
<path d="M13.9165 13.124C13.5209 13.124 13.1992 13.4457 13.1992 13.8413C13.1992 14.2368 13.5209 14.5585 13.9165 14.5585C14.312 14.5585 14.6337 14.2368 14.6337 13.8413C14.6337 13.4457 14.312 13.124 13.9165 13.124ZM13.9165 14.1999C13.8241 14.1958 13.7369 14.1562 13.6731 14.0894C13.6092 14.0226 13.5735 13.9337 13.5735 13.8413C13.5735 13.7488 13.6092 13.66 13.6731 13.5932C13.7369 13.5264 13.8241 13.4868 13.9165 13.4827C14.0088 13.4868 14.096 13.5264 14.1599 13.5932C14.2238 13.66 14.2594 13.7488 14.2594 13.8413C14.2594 13.9337 14.2238 14.0226 14.1599 14.0894C14.096 14.1562 14.0088 14.1958 13.9165 14.1999Z" fill="#98CBFF"/>
<path d="M16.4282 13.124C16.0326 13.124 15.7109 13.4457 15.7109 13.8413C15.7109 14.2368 16.0326 14.5585 16.4282 14.5585C16.8238 14.5585 17.1454 14.2368 17.1454 13.8413C17.1454 13.4457 16.8238 13.124 16.4282 13.124ZM16.4282 14.1999C16.3359 14.1958 16.2487 14.1562 16.1848 14.0894C16.1209 14.0226 16.0852 13.9337 16.0852 13.8413C16.0852 13.7488 16.1209 13.66 16.1848 13.5932C16.2487 13.5264 16.3359 13.4868 16.4282 13.4827C16.5205 13.4868 16.6077 13.5264 16.6716 13.5932C16.7355 13.66 16.7711 13.7488 16.7711 13.8413C16.7711 13.9337 16.7355 14.0226 16.6716 14.0894C16.6077 14.1562 16.5205 14.1958 16.4282 14.1999Z" fill="#98CBFF"/>
<path d="M11.4067 13.1582C11.0111 13.1582 10.6895 13.4799 10.6895 13.8755C10.6895 14.271 11.0111 14.5927 11.4067 14.5927C11.8023 14.5927 12.124 14.271 12.124 13.8755C12.124 13.4799 11.8023 13.1582 11.4067 13.1582ZM11.4067 14.2341C11.3144 14.23 11.2272 14.1904 11.1633 14.1236C11.0994 14.0568 11.0638 13.9679 11.0638 13.8755C11.0638 13.783 11.0994 13.6942 11.1633 13.6274C11.2272 13.5605 11.3144 13.521 11.4067 13.5168C11.499 13.521 11.5862 13.5605 11.6501 13.6274C11.714 13.6942 11.7497 13.783 11.7497 13.8755C11.7497 13.9679 11.714 14.0568 11.6501 14.1236C11.5862 14.1904 11.499 14.23 11.4067 14.2341Z" fill="#98CBFF"/>
</svg>
