<svg width="30" height="30" viewBox="0 0 30 30" fill="none" xmlns="http://www.w3.org/2000/svg">
<circle cx="15" cy="15" r="13.5" stroke="#81C217" stroke-width="3"/>
<path d="M11.95 14.6625C11.95 14.5332 12.0014 14.4092 12.0928 14.3178C12.1842 14.2264 12.3082 14.175 12.4375 14.175C12.5668 14.175 12.6908 14.2264 12.7822 14.3178C12.8736 14.4092 12.925 14.5332 12.925 14.6625C12.925 14.7918 12.8736 14.9158 12.7822 15.0072C12.6908 15.0986 12.5668 15.15 12.4375 15.15C12.3082 15.15 12.1842 15.0986 12.0928 15.0072C12.0014 14.9158 11.95 14.7918 11.95 14.6625ZM12.4375 16.125C12.3082 16.125 12.1842 16.1764 12.0928 16.2678C12.0014 16.3592 11.95 16.4832 11.95 16.6125C11.95 16.7418 12.0014 16.8658 12.0928 16.9572C12.1842 17.0486 12.3082 17.1 12.4375 17.1C12.5668 17.1 12.6908 17.0486 12.7822 16.9572C12.8736 16.8658 12.925 16.7418 12.925 16.6125C12.925 16.4832 12.8736 16.3592 12.7822 16.2678C12.6908 16.1764 12.5668 16.125 12.4375 16.125ZM11.95 18.5625C11.95 18.4332 12.0014 18.3092 12.0928 18.2178C12.1842 18.1264 12.3082 18.075 12.4375 18.075C12.5668 18.075 12.6908 18.1264 12.7822 18.2178C12.8736 18.3092 12.925 18.4332 12.925 18.5625C12.925 18.6918 12.8736 18.8158 12.7822 18.9072C12.6908 18.9986 12.5668 19.05 12.4375 19.05C12.3082 19.05 12.1842 18.9986 12.0928 18.9072C12.0014 18.8158 11.95 18.6918 11.95 18.5625ZM14.3875 14.175C14.2582 14.175 14.1342 14.2264 14.0428 14.3178C13.9514 14.4092 13.9 14.5332 13.9 14.6625C13.9 14.7918 13.9514 14.9158 14.0428 15.0072C14.1342 15.0986 14.2582 15.15 14.3875 15.15H17.9625C18.0918 15.15 18.2158 15.0986 18.3072 15.0072C18.3986 14.9158 18.45 14.7918 18.45 14.6625C18.45 14.5332 18.3986 14.4092 18.3072 14.3178C18.2158 14.2264 18.0918 14.175 17.9625 14.175H14.3875ZM13.9 16.6125C13.9 16.4832 13.9514 16.3592 14.0428 16.2678C14.1342 16.1764 14.2582 16.125 14.3875 16.125H17.9625C18.0918 16.125 18.2158 16.1764 18.3072 16.2678C18.3986 16.3592 18.45 16.4832 18.45 16.6125C18.45 16.7418 18.3986 16.8658 18.3072 16.9572C18.2158 17.0486 18.0918 17.1 17.9625 17.1H14.3875C14.2582 17.1 14.1342 17.0486 14.0428 16.9572C13.9514 16.8658 13.9 16.7418 13.9 16.6125ZM14.3875 18.075C14.2582 18.075 14.1342 18.1264 14.0428 18.2178C13.9514 18.3092 13.9 18.4332 13.9 18.5625C13.9 18.6918 13.9514 18.8158 14.0428 18.9072C14.1342 18.9986 14.2582 19.05 14.3875 19.05H17.9625C18.0918 19.05 18.2158 18.9986 18.3072 18.9072C18.3986 18.8158 18.45 18.6918 18.45 18.5625C18.45 18.4332 18.3986 18.3092 18.3072 18.2178C18.2158 18.1264 18.0918 18.075 17.9625 18.075H14.3875ZM20.0191 12.1691L16.2302 8.3809C16.2202 8.37156 16.2096 8.36288 16.1984 8.3549C16.1904 8.34869 16.1826 8.34219 16.175 8.3354C16.1303 8.2932 16.0827 8.2541 16.0326 8.2184C16.016 8.20766 15.9986 8.19811 15.9806 8.1898L15.9494 8.1742L15.9169 8.15535C15.8818 8.1352 15.8461 8.1144 15.8091 8.0988C15.6796 8.0471 15.5426 8.01681 15.4034 8.0091C15.3904 8.00845 15.3774 8.0065 15.3651 8.00455C15.3475 8.00183 15.3296 8.00031 15.3118 8H11.3C10.9552 8 10.6246 8.13696 10.3808 8.38076C10.137 8.62456 10 8.95522 10 9.3V19.7C10 20.0448 10.137 20.3754 10.3808 20.6192C10.6246 20.863 10.9552 21 11.3 21H19.1C19.4448 21 19.7754 20.863 20.0192 20.6192C20.263 20.3754 20.4 20.0448 20.4 19.7V13.0882C20.3999 12.7434 20.2629 12.4128 20.0191 12.1691ZM19.425 19.7C19.425 19.7862 19.3908 19.8689 19.3298 19.9298C19.2689 19.9908 19.1862 20.025 19.1 20.025H11.3C11.2138 20.025 11.1311 19.9908 11.0702 19.9298C11.0092 19.8689 10.975 19.7862 10.975 19.7V9.3C10.975 9.2138 11.0092 9.13114 11.0702 9.07019C11.1311 9.00924 11.2138 8.975 11.3 8.975H15.2V11.9C15.2 12.2448 15.337 12.5754 15.5808 12.8192C15.8246 13.063 16.1552 13.2 16.5 13.2H19.425V19.7ZM16.175 9.70365L18.6957 12.225H16.5C16.4138 12.225 16.3311 12.1908 16.2702 12.1298C16.2092 12.0689 16.175 11.9862 16.175 11.9V9.70365Z" fill="#81C217"/>
</svg>
