<svg width="46" height="46" viewBox="0 0 46 46" fill="none" xmlns="http://www.w3.org/2000/svg">
<path d="M17.8819 31.0003C18.5716 31.0003 19.2331 30.7248 19.7208 30.2343C20.2085 29.7438 20.4825 29.0786 20.4825 28.3849C20.4825 27.6913 20.2085 27.026 19.7208 26.5356C19.2331 26.0451 18.5716 25.7695 17.8819 25.7695C17.1921 25.7695 16.5307 26.0451 16.043 26.5356C15.5552 27.026 15.2813 27.6913 15.2812 28.3849C15.2813 29.0786 15.5552 29.7438 16.043 30.2343C16.5307 30.7248 17.1921 31.0003 17.8819 31.0003V31.0003Z" stroke="#A5A6F6" stroke-width="2" stroke-miterlimit="1.5" stroke-linecap="round" stroke-linejoin="round"/>
<path d="M30.8838 31.0003C31.5735 31.0003 32.235 30.7248 32.7227 30.2343C33.2104 29.7438 33.4844 29.0786 33.4844 28.3849C33.4844 27.6913 33.2104 27.026 32.7227 26.5356C32.235 26.0451 31.5735 25.7695 30.8838 25.7695C30.1941 25.7695 29.5326 26.0451 29.0449 26.5356C28.5572 27.026 28.2832 27.6913 28.2832 28.3849C28.2832 29.0786 28.5572 29.7438 29.0449 30.2343C29.5326 30.7248 30.1941 31.0003 30.8838 31.0003V31.0003Z" stroke="#A5A6F6" stroke-width="2" stroke-miterlimit="1.5" stroke-linecap="round" stroke-linejoin="round"/>
<path d="M20.547 28.3846H26.9836V14.7846C26.9836 14.5765 26.9014 14.377 26.755 14.2298C26.6087 14.0827 26.4103 14 26.2034 14H8.7793" stroke="#A5A6F6" stroke-width="2" stroke-linecap="round"/>
<path d="M14.8247 28.3847H12.1591C12.0566 28.3847 11.9552 28.3644 11.8605 28.325C11.7659 28.2855 11.6799 28.2277 11.6074 28.1549C11.535 28.082 11.4775 27.9955 11.4383 27.9003C11.3991 27.8051 11.3789 27.7031 11.3789 27.6001V21.1924" stroke="#A5A6F6" stroke-width="2" stroke-linecap="round"/>
<path d="M10.0801 17.9229H15.2813" stroke="#A5A6F6" stroke-width="2" stroke-linecap="round" stroke-linejoin="round"/>
<path d="M26.9844 17.9229H34.2791C34.4299 17.9229 34.5774 17.9669 34.7039 18.0495C34.8304 18.1321 34.9303 18.2498 34.9916 18.3884L37.3192 23.6558C37.3635 23.7558 37.3866 23.864 37.3868 23.9735V27.5998C37.3868 27.7028 37.3666 27.8048 37.3274 27.9C37.2882 27.9952 37.2307 28.0817 37.1583 28.1546C37.0859 28.2274 36.9998 28.2852 36.9052 28.3247C36.8105 28.3641 36.7091 28.3844 36.6066 28.3844H34.136" stroke="#A5A6F6" stroke-width="2" stroke-linecap="round"/>
<path d="M26.9844 28.3848H28.2847" stroke="#A5A6F6" stroke-width="2" stroke-linecap="round"/>
<circle cx="23" cy="23" r="21.5" stroke="#A5A6F6" stroke-width="3"/>
</svg>
