<svg width="21" height="21" viewBox="0 0 21 21" fill="none" xmlns="http://www.w3.org/2000/svg">
<path d="M10.5 10.625C11.7929 10.625 13.0329 10.1114 13.9471 9.19715C14.8614 8.28291 15.375 7.04293 15.375 5.75C15.375 4.45707 14.8614 3.21709 13.9471 2.30285C13.0329 1.38861 11.7929 0.875 10.5 0.875C9.20707 0.875 7.96709 1.38861 7.05285 2.30285C6.13861 3.21709 5.625 4.45707 5.625 5.75C5.625 7.04293 6.13861 8.28291 7.05285 9.19715C7.96709 10.1114 9.20707 10.625 10.5 10.625ZM13.5417 5.75C13.5417 6.5567 13.2212 7.33036 12.6508 7.90078C12.0804 8.47121 11.3067 8.79167 10.5 8.79167C9.6933 8.79167 8.91964 8.47121 8.34922 7.90078C7.77879 7.33036 7.45833 6.5567 7.45833 5.75C7.45833 4.9433 7.77879 4.16964 8.34922 3.59922C8.91964 3.02879 9.6933 2.70833 10.5 2.70833C11.3067 2.70833 12.0804 3.02879 12.6508 3.59922C13.2212 4.16964 13.5417 4.9433 13.5417 5.75ZM18.4167 20C18.4167 20.125 18.4167 20.125 18.4168 20.125H18.417L18.4174 20.125L18.4188 20.125L18.4232 20.1249L18.4386 20.1245C18.4517 20.1241 18.4703 20.1233 18.4936 20.1216C18.5402 20.1183 18.606 20.1117 18.6846 20.0986C18.8412 20.0725 19.052 20.02 19.2642 19.9139C19.477 19.8075 19.6935 19.646 19.8566 19.4014C20.0202 19.156 20.125 18.8344 20.125 18.4167C20.125 17.5929 19.7167 15.9775 18.3071 14.5679C16.8939 13.1546 14.4847 11.9583 10.5 11.9583C6.51531 11.9583 4.10612 13.1546 2.69286 14.5679C1.28327 15.9775 0.875 17.5929 0.875 18.4167C0.875 18.8344 0.979786 19.156 1.14339 19.4014C1.30647 19.646 1.52302 19.8075 1.73576 19.9139C1.94802 20.02 2.15876 20.0725 2.31539 20.0986C2.394 20.1117 2.45978 20.1183 2.50639 20.1216C2.52972 20.1233 2.54832 20.1241 2.56139 20.1245L2.57678 20.1249L2.58119 20.125L2.58255 20.125L2.58302 20.125H2.58319C2.58327 20.125 2.58333 20.125 2.58333 20V20.125H18.4167V20ZM17.0109 15.8641C17.9585 16.8116 18.2378 17.8327 18.2842 18.2853H2.71614C2.76351 17.8321 3.04192 16.8112 3.98906 15.8641C4.99359 14.8595 6.90061 13.7917 10.5 13.7917C14.0978 13.7917 16.0064 14.8595 17.0109 15.8641Z" fill="white" stroke="white" stroke-width="0.25"/>
</svg>
