<svg width="30" height="30" viewBox="0 0 30 30" fill="none" xmlns="http://www.w3.org/2000/svg">
<path d="M8.574 12.7H9.574V11.7H8.574V12.7ZM8.574 19V20H9.574V19H8.574ZM7.404 19H6.404V20H7.404V19ZM7.404 13.681H8.404V12.681H7.404V13.681ZM6.072 13.681H5.072V14.681H6.072V13.681ZM6.072 12.7V11.7H5.072V12.7H6.072ZM7.574 12.7V19H9.574V12.7H7.574ZM8.574 18H7.404V20H8.574V18ZM8.404 19V13.681H6.404V19H8.404ZM7.404 12.681H6.072V14.681H7.404V12.681ZM7.072 13.681V12.7H5.072V13.681H7.072ZM6.072 13.7H8.574V11.7H6.072V13.7ZM14.9357 12.7H15.9357V11.7H14.9357V12.7ZM14.9357 13.483L15.8498 13.8886L15.9357 13.6949V13.483H14.9357ZM12.4877 19V20H13.138L13.4018 19.4056L12.4877 19ZM11.2367 19L10.3234 18.5929L9.69612 20H11.2367V19ZM13.6037 13.69L14.5171 14.0971L15.1444 12.69H13.6037V13.69ZM11.1287 13.69V12.69H10.1287V13.69H11.1287ZM11.1287 14.761V15.761H12.1287V14.761H11.1287ZM10.0397 14.761H9.03973V15.761H10.0397V14.761ZM10.0397 12.7V11.7H9.03973V12.7H10.0397ZM13.9357 12.7V13.483H15.9357V12.7H13.9357ZM14.0217 13.0774L11.5737 18.5944L13.4018 19.4056L15.8498 13.8886L14.0217 13.0774ZM12.4877 18H11.2367V20H12.4877V18ZM12.1501 19.4071L14.5171 14.0971L12.6904 13.2829L10.3234 18.5929L12.1501 19.4071ZM13.6037 12.69H11.1287V14.69H13.6037V12.69ZM10.1287 13.69V14.761H12.1287V13.69H10.1287ZM11.1287 13.761H10.0397V15.761H11.1287V13.761ZM11.0397 14.761V12.7H9.03973V14.761H11.0397ZM10.0397 13.7H14.9357V11.7H10.0397V13.7ZM16.3783 15.616L17.1335 14.9605L16.3783 15.616ZM16.3783 13.114L15.623 12.4585V12.4585L16.3783 13.114ZM18.5563 13.114L17.801 13.7695L17.8076 13.7771L17.8144 13.7845L18.5563 13.114ZM18.5563 15.625L17.8081 14.9615L17.8073 14.9624L18.5563 15.625ZM21.2473 12.7V11.7H20.7192L20.4214 12.1361L21.2473 12.7ZM22.1293 12.7L22.9551 13.2639L24.023 11.7H22.1293V12.7ZM17.8273 19V20H18.3553L18.6531 19.5639L17.8273 19ZM16.9453 19L16.1194 18.4361L15.0515 20H16.9453V19ZM18.0343 15.175L17.2223 14.5914L17.2161 14.5999L17.2102 14.6085L18.0343 15.175ZM18.0343 13.555L17.2102 14.1215L17.2161 14.1301L17.2223 14.1386L18.0343 13.555ZM16.9003 13.564L16.0915 12.9758L16.0883 12.9804L16.9003 13.564ZM16.9003 15.175L16.0799 15.7468L16.0898 15.7611L16.1003 15.775L16.9003 15.175ZM20.5093 18.586L21.2645 17.9305L21.2645 17.9305L20.5093 18.586ZM20.5093 16.084L21.2645 16.7395L21.2645 16.7395L20.5093 16.084ZM22.6873 16.084L21.932 16.7395L21.9391 16.7475L22.6873 16.084ZM22.6873 18.586L21.939 17.9225L21.932 17.9305L22.6873 18.586ZM22.1653 18.145L22.9773 18.7286L22.9815 18.7227L22.9857 18.7168L22.1653 18.145ZM22.1653 16.534L21.3449 17.1058L21.349 17.1117L21.3533 17.1176L22.1653 16.534ZM21.0313 16.525L21.8433 17.1086V17.1086L21.0313 16.525ZM21.0313 18.145L21.8433 17.5614L21.0313 18.145ZM17.4673 15.093C17.2845 15.093 17.2052 15.0432 17.1335 14.9605L15.623 16.2715C16.1033 16.8248 16.7501 17.093 17.4673 17.093V15.093ZM17.1335 14.9605C17.0488 14.863 16.9643 14.6967 16.9643 14.365H14.9643C14.9643 15.0653 15.1557 15.733 15.623 16.2715L17.1335 14.9605ZM16.9643 14.365C16.9643 14.0333 17.0488 13.867 17.1335 13.7695L15.623 12.4585C15.1557 12.997 14.9643 13.6647 14.9643 14.365H16.9643ZM17.1335 13.7695C17.2052 13.6868 17.2845 13.637 17.4673 13.637V11.637C16.7501 11.637 16.1033 11.9052 15.623 12.4585L17.1335 13.7695ZM17.4673 13.637C17.6501 13.637 17.7293 13.6868 17.801 13.7695L19.3115 12.4585C18.8312 11.9052 18.1845 11.637 17.4673 11.637V13.637ZM17.8144 13.7845C17.8927 13.8712 17.9793 14.0284 17.9793 14.365H19.9793C19.9793 13.6575 19.7838 12.9808 19.2981 12.4435L17.8144 13.7845ZM17.9793 14.365C17.9793 14.7007 17.893 14.8658 17.8081 14.9615L19.3045 16.2885C19.7835 15.7482 19.9793 15.0733 19.9793 14.365H17.9793ZM17.8073 14.9624C17.7376 15.0412 17.6567 15.093 17.4673 15.093V17.093C18.1778 17.093 18.8229 16.8328 19.3053 16.2876L17.8073 14.9624ZM21.2473 13.7H22.1293V11.7H21.2473V13.7ZM21.3034 12.1361L17.0014 18.4361L18.6531 19.5639L22.9551 13.2639L21.3034 12.1361ZM17.8273 18H16.9453V20H17.8273V18ZM17.7711 19.5639L22.0731 13.2639L20.4214 12.1361L16.1194 18.4361L17.7711 19.5639ZM17.4673 16.463C18.0208 16.463 18.5277 16.2224 18.8583 15.7415L17.2102 14.6085C17.2293 14.5808 17.2718 14.5344 17.3407 14.4994C17.4074 14.4655 17.4582 14.463 17.4673 14.463V16.463ZM18.8463 15.7586C19.1519 15.3334 19.2413 14.8283 19.2413 14.365H17.2413C17.2413 14.4752 17.2301 14.5439 17.2207 14.5809C17.2116 14.6163 17.2067 14.613 17.2223 14.5914L18.8463 15.7586ZM19.2413 14.365C19.2413 13.9017 19.1519 13.3966 18.8463 12.9714L17.2223 14.1386C17.2067 14.117 17.2116 14.1137 17.2207 14.1491C17.2301 14.1861 17.2413 14.2548 17.2413 14.365H19.2413ZM18.8583 12.9885C18.5277 12.5076 18.0208 12.267 17.4673 12.267V14.267C17.4582 14.267 17.4074 14.2645 17.3407 14.2306C17.2718 14.1956 17.2293 14.1492 17.2102 14.1215L18.8583 12.9885ZM17.4673 12.267C16.8963 12.267 16.4135 12.5332 16.0915 12.9758L17.709 14.1522C17.7039 14.1592 17.6746 14.1953 17.614 14.2271C17.5519 14.2596 17.4959 14.267 17.4673 14.267V12.267ZM16.0883 12.9804C15.7844 13.4031 15.6933 13.9032 15.6933 14.365H17.6933C17.6933 14.2591 17.7042 14.1934 17.7132 14.1585C17.7218 14.1252 17.7265 14.1279 17.7123 14.1476L16.0883 12.9804ZM15.6933 14.365C15.6933 14.8293 15.7854 15.3243 16.0799 15.7468L17.7207 14.6032C17.7391 14.6297 17.6933 14.5847 17.6933 14.365H15.6933ZM16.1003 15.775C16.4274 16.2112 16.9091 16.463 17.4673 16.463V14.463C17.491 14.463 17.543 14.469 17.6029 14.4994C17.6619 14.5294 17.6926 14.5648 17.7003 14.575L16.1003 15.775ZM21.5983 18.063C21.4155 18.063 21.3362 18.0132 21.2645 17.9305L19.754 19.2415C20.2343 19.7948 20.8811 20.063 21.5983 20.063V18.063ZM21.2645 17.9305C21.1798 17.833 21.0953 17.6667 21.0953 17.335H19.0953C19.0953 18.0353 19.2867 18.703 19.754 19.2415L21.2645 17.9305ZM21.0953 17.335C21.0953 17.0033 21.1798 16.837 21.2645 16.7395L19.754 15.4285C19.2867 15.967 19.0953 16.6347 19.0953 17.335H21.0953ZM21.2645 16.7395C21.3362 16.6568 21.4155 16.607 21.5983 16.607V14.607C20.8811 14.607 20.2343 14.8752 19.754 15.4285L21.2645 16.7395ZM21.5983 16.607C21.7811 16.607 21.8603 16.6568 21.932 16.7395L23.4425 15.4285C22.9622 14.8752 22.3155 14.607 21.5983 14.607V16.607ZM21.9391 16.7475C22.0258 16.8453 22.1103 17.0087 22.1103 17.335H24.1103C24.1103 16.6293 23.9127 15.9587 23.4355 15.4205L21.9391 16.7475ZM22.1103 17.335C22.1103 17.6613 22.0258 17.8247 21.9391 17.9225L23.4355 19.2495C23.9127 18.7113 24.1103 18.0407 24.1103 17.335H22.1103ZM21.932 17.9305C21.8603 18.0132 21.7811 18.063 21.5983 18.063V20.063C22.3155 20.063 22.9622 19.7948 23.4425 19.2415L21.932 17.9305ZM21.5983 19.433C22.1544 19.433 22.6481 19.1867 22.9773 18.7286L21.3533 17.5614C21.3667 17.5427 21.4032 17.5019 21.4672 17.4694C21.5305 17.4372 21.5819 17.433 21.5983 17.433V19.433ZM22.9857 18.7168C23.2801 18.2943 23.3723 17.7993 23.3723 17.335H21.3723C21.3723 17.5547 21.3264 17.5997 21.3449 17.5732L22.9857 18.7168ZM23.3723 17.335C23.3723 16.8732 23.2811 16.3731 22.9773 15.9504L21.3533 17.1176C21.3391 17.0979 21.3437 17.0952 21.3523 17.1285C21.3614 17.1634 21.3723 17.2291 21.3723 17.335H23.3723ZM22.9857 15.9622C22.6619 15.4977 22.1675 15.237 21.5983 15.237V17.237C21.5771 17.237 21.5217 17.2315 21.456 17.1971C21.3905 17.1628 21.3555 17.1211 21.3449 17.1058L22.9857 15.9622ZM21.5983 15.237C21.0421 15.237 20.5485 15.4833 20.2193 15.9414L21.8433 17.1086C21.8298 17.1273 21.7933 17.1681 21.7294 17.2006C21.666 17.2328 21.6147 17.237 21.5983 17.237V15.237ZM20.2193 15.9414C19.9136 16.3666 19.8243 16.8717 19.8243 17.335H21.8243C21.8243 17.2248 21.8354 17.1561 21.8449 17.1191C21.8539 17.0837 21.8588 17.087 21.8433 17.1086L20.2193 15.9414ZM19.8243 17.335C19.8243 17.7983 19.9136 18.3034 20.2193 18.7286L21.8433 17.5614C21.8588 17.583 21.8539 17.5863 21.8449 17.5509C21.8354 17.5139 21.8243 17.4452 21.8243 17.335H19.8243ZM20.2193 18.7286C20.5485 19.1867 21.0421 19.433 21.5983 19.433V17.433C21.6147 17.433 21.666 17.4372 21.7294 17.4694C21.7933 17.5019 21.8298 17.5427 21.8433 17.5614L20.2193 18.7286Z" fill="#EF5DA8"/>
<circle cx="15" cy="15" r="13.5" stroke="#EF5DA8" stroke-width="3"/>
</svg>
